#!OML:ASF F:\VICON\USERDATA\INSTALL\rory3\rory3.ASF
:FULLY-SPECIFIED
:DEGREES
438
root 3.69334 18.0321 7.50526 0.483969 23.2068 0.0875438
lowerback 15.9376 1.82247 -2.0008
upperback 2.9353 2.1036 0.0530564
thorax -5.87304 1.0786 0.752258
lowerneck -16.1901 -10.042 -14.6558
upperneck 21.424 -13.7344 14.1192
head 11.7557 -5.91082 5.4332
rclavicle 4.48259e-014 -1.66979e-014
rhumerus -30.2802 30.0091 -96.3932
rradius 72.836
rwrist 9.88486
rhand -32.375 14.7482
rfingers 7.12502
rthumb -5.61082 -15.1576
lclavicle 4.48259e-014 -1.66979e-014
lhumerus -32.6434 -28.5646 99.812
lradius 75.1795
lwrist 35.0428
lhand -22.2652 44.6338
lfingers 7.12502
lthumb 4.15272 74.573
rfemur -10.0209 -7.01628 13.5007
rtibia 26.113
rfoot -9.62069 -12.0316
rtoes 2.60473
lfemur -10.3692 -1.1547 -21.037
ltibia 22.2763
lfoot -8.11824 -1.06862
ltoes -2.59619
439
root 3.71363 18.0306 7.53762 0.211079 23.0256 0.201234
lowerback 15.7297 1.7398 -2.15298
upperback 2.76796 1.96385 -0.0578771
thorax -5.93478 1.01316 0.752673
lowerneck -16.2676 -10.0091 -14.6699
upperneck 21.6181 -13.7083 14.1425
head 11.8437 -5.89239 5.45326
rclavicle 4.89631e-014 7.95139e-015
rhumerus -30.7247 30.1452 -96.7421
rradius 73.7019
rwrist 9.47469
rhand -31.7572 15.3101
rfingers 7.12502
rthumb -5.01433 -14.6105
lclavicle 4.89631e-014 7.95139e-015
lhumerus -32.8966 -28.697 99.7465
lradius 75.4142
lwrist 35.0241
lhand -21.6449 44.9467
lfingers 7.12502
lthumb 4.75162 74.8735
rfemur -9.46219 -6.84973 13.3023
rtibia 25.953
rfoot -9.6887 -12.0106
rtoes 2.61587
lfemur -9.67512 -1.04638 -21.1625
ltibia 21.9709
lfoot -8.22284 -1.03952
ltoes -2.58974
440
root 3.73594 18.0309 7.56618 0.0724226 22.894 0.248932
lowerback 15.2874 1.60248 -2.23145
upperback 2.63589 1.77386 -0.132671
thorax -5.82771 0.921023 0.766035
lowerneck -16.3455 -9.96413 -14.6776
upperneck 21.6735 -13.6577 14.1957
head 11.8769 -5.86145 5.48448
rclavicle 1.93318e-014 -1.49089e-014
rhumerus -31.1375 30.4696 -97.1304
rradius 74.3744
rwrist 10.135
rhand -31.9003 15.0938
rfingers 7.12502
rthumb -5.15242 -14.8236
lclavicle 1.93318e-014 -1.49089e-014
lhumerus -33.0713 -28.916 99.7189
lradius 75.7272
lwrist 35.4327
lhand -21.8075 45.0772
lfingers 7.12502
lthumb 4.59462 75.0074
rfemur -9.09315 -6.60002 13.1959
rtibia 25.8006
rfoot -9.65818 -12.0586
rtoes 2.74012
lfemur -9.18888 -1.01056 -21.2243
ltibia 21.6881
lfoot -8.26335 -1.02826
ltoes -1.84792
441
root 3.75154 18.0358 7.59691 0.0821948 22.2299 0.349831
lowerback 14.6996 1.678 -2.54753
upperback 2.47479 1.83146 -0.202494
thorax -5.6863 0.953977 0.871456
lowerneck -16.4921 -9.92296 -14.583
upperneck 21.745 -13.5969 14.1169
head 11.9077 -5.82832 5.44776
rclavicle -3.47873e-016 -7.65321e-015
rhumerus -31.6172 30.6956 -97.5512
rradius 75.0745
rwrist 10.9667
rhand -31.8325 14.9157
rfingers 7.12502
rthumb -5.08696 -15.0033
lclavicle -3.47873e-016 -7.65321e-015
lhumerus -33.2831 -29.3097 99.7213
lradius 76.1337
lwrist 36.0234
lhand -22.0016 45.6684
lfingers 7.12502
lthumb 4.40719 75.6026
rfemur -9.01466 -6.13999 13.0725
rtibia 25.6696
rfoot -9.61668 -11.8711
rtoes 2.44208
lfemur -8.81105 -0.576908 -21.3134
ltibia 21.4366
lfoot -8.33315 -0.906984
ltoes -1.04594
442
root 3.7696 18.039 7.62384 0.0211902 21.4879 0.351934
lowerback 14.3038 1.77906 -2.66947
upperback 2.2257 1.94786 -0.272894
thorax -5.73903 1.01417 0.849543
lowerneck -16.5414 -9.88649 -14.519
upperneck 21.8756 -13.5518 14.0286
head 11.9463 -5.80924 5.41421
rclavicle 2.81777e-014 -1.19271e-014
rhumerus -32.2409 30.7749 -98.0203
rradius 75.8518
rwrist 11.4007
rhand -31.3461 15.1938
rfingers 7.12502
rthumb -4.61731 -14.7359
lclavicle 2.81777e-014 -1.19271e-014
lhumerus -33.7035 -29.659 99.8043
lradius 76.5731
lwrist 36.5129
lhand -21.8269 45.9963
lfingers 7.12502
lthumb 4.5759 75.9269
rfemur -8.96327 -5.70845 13.0287
rtibia 25.579
rfoot -9.66127 -11.6518
rtoes 1.91503
lfemur -8.42392 -0.011776 -21.3205
ltibia 21.2073
lfoot -8.46804 -0.786495
ltoes -1.19627
443
root 3.79258 18.0357 7.64862 -0.0824516 21.0676 0.46013
lowerback 13.9999 1.77368 -2.78527
upperback 2.02223 1.92498 -0.327437
thorax -5.78859 1.00637 0.866353
lowerneck -16.4988 -9.85132 -14.687
upperneck 21.9443 -13.4941 14.1063
head 11.9748 -5.79101 5.48716
rclavicle -7.67806e-015 6.55989e-015
rhumerus -32.8549 30.9488 -98.3913
rradius 76.6158
rwrist 12.0513
rhand -31.2957 15.2579
rfingers 7.12502
rthumb -4.56863 -14.6729
lclavicle -7.67806e-015 6.55989e-015
lhumerus -34.218 -29.7848 100.003
lradius 77.1102
lwrist 37.0266
lhand -21.6994 45.9725
lfingers 7.12502
lthumb 4.69905 75.9004
rfemur -8.76394 -5.52639 12.8322
rtibia 25.5417
rfoot -9.73639 -11.4051
rtoes 1.79082
lfemur -7.98118 0.216752 -21.4691
ltibia 20.9967
lfoot -8.57755 -0.61645
ltoes -1.20849
444
root 3.81573 18.0304 7.67196 -0.189761 20.9119 0.687134
lowerback 13.7167 1.68157 -2.99855
upperback 1.86701 1.77365 -0.392575
thorax -5.79546 0.937336 0.951246
lowerneck -16.371 -9.80298 -14.8662
upperneck 21.8943 -13.4251 14.2351
head 11.944 -5.7687 5.58298
rclavicle -9.45718e-014 1.61016e-014
rhumerus -33.3883 31.1351 -98.7363
rradius 77.3292
rwrist 12.7915
rhand -31.448 15.3435
rfingers 7.12502
rthumb -4.71578 -14.584
lclavicle -9.45718e-014 1.61016e-014
lhumerus -34.7065 -29.8395 100.185
lradius 77.7508
lwrist 37.6203
lhand -21.6427 46.5923
lfingers 7.12502
lthumb 4.75374 76.519
rfemur -8.47215 -5.49788 12.5106
rtibia 25.537
rfoot -9.79346 -11.2567
rtoes 1.51278
lfemur -7.52416 0.226723 -21.7431
ltibia 20.8305
lfoot -8.69886 -0.504361
ltoes -0.804694
